<mxfile host="Electron" agent="Mozilla/5.0 (Windows NT 10.0; Win64; x64) AppleWebKit/537.36 (KHTML, like Gecko) draw.io/28.2.5 Chrome/138.0.7204.251 Electron/37.6.1 Safari/537.36" version="28.2.5">
  <diagram name="Page-1" id="5SKAm97IUk-dDTujLmm5">
    <mxGraphModel dx="595" dy="385" grid="1" gridSize="10" guides="1" tooltips="1" connect="1" arrows="1" fold="1" page="1" pageScale="1" pageWidth="850" pageHeight="1100" math="1" shadow="0">
      <root>
        <mxCell id="0" />
        <mxCell id="1" parent="0" />
        <mxCell id="32SLlUpQdxrGUWhNNxCO-19" value="\(n=16\)" style="whiteSpace=wrap;html=1;aspect=fixed;verticalAlign=top;labelPosition=center;verticalLabelPosition=bottom;align=center;" parent="1" vertex="1">
          <mxGeometry x="290" y="270" width="72" height="72" as="geometry" />
        </mxCell>
        <mxCell id="32SLlUpQdxrGUWhNNxCO-20" value="" style="whiteSpace=wrap;html=1;aspect=fixed;verticalAlign=top;labelPosition=center;verticalLabelPosition=bottom;align=center;" parent="1" vertex="1">
          <mxGeometry x="290" y="270" width="18" height="18" as="geometry" />
        </mxCell>
        <mxCell id="32SLlUpQdxrGUWhNNxCO-21" value="" style="whiteSpace=wrap;html=1;aspect=fixed;verticalAlign=top;labelPosition=center;verticalLabelPosition=bottom;align=center;" parent="1" vertex="1">
          <mxGeometry x="308" y="270" width="18" height="18" as="geometry" />
        </mxCell>
        <mxCell id="32SLlUpQdxrGUWhNNxCO-22" value="" style="whiteSpace=wrap;html=1;aspect=fixed;verticalAlign=top;labelPosition=center;verticalLabelPosition=bottom;align=center;" parent="1" vertex="1">
          <mxGeometry x="326" y="270" width="18" height="18" as="geometry" />
        </mxCell>
        <mxCell id="32SLlUpQdxrGUWhNNxCO-23" value="" style="whiteSpace=wrap;html=1;aspect=fixed;verticalAlign=top;labelPosition=center;verticalLabelPosition=bottom;align=center;" parent="1" vertex="1">
          <mxGeometry x="344" y="270" width="18" height="18" as="geometry" />
        </mxCell>
        <mxCell id="32SLlUpQdxrGUWhNNxCO-24" value="" style="whiteSpace=wrap;html=1;aspect=fixed;verticalAlign=top;labelPosition=center;verticalLabelPosition=bottom;align=center;" parent="1" vertex="1">
          <mxGeometry x="290" y="288" width="18" height="18" as="geometry" />
        </mxCell>
        <mxCell id="32SLlUpQdxrGUWhNNxCO-25" value="" style="whiteSpace=wrap;html=1;aspect=fixed;verticalAlign=top;labelPosition=center;verticalLabelPosition=bottom;align=center;" parent="1" vertex="1">
          <mxGeometry x="308" y="288" width="18" height="18" as="geometry" />
        </mxCell>
        <mxCell id="32SLlUpQdxrGUWhNNxCO-26" value="" style="whiteSpace=wrap;html=1;aspect=fixed;verticalAlign=top;labelPosition=center;verticalLabelPosition=bottom;align=center;" parent="1" vertex="1">
          <mxGeometry x="326" y="288" width="18" height="18" as="geometry" />
        </mxCell>
        <mxCell id="32SLlUpQdxrGUWhNNxCO-27" value="" style="whiteSpace=wrap;html=1;aspect=fixed;verticalAlign=top;labelPosition=center;verticalLabelPosition=bottom;align=center;" parent="1" vertex="1">
          <mxGeometry x="344" y="288" width="18" height="18" as="geometry" />
        </mxCell>
        <mxCell id="32SLlUpQdxrGUWhNNxCO-28" value="" style="whiteSpace=wrap;html=1;aspect=fixed;verticalAlign=top;labelPosition=center;verticalLabelPosition=bottom;align=center;" parent="1" vertex="1">
          <mxGeometry x="290" y="306" width="18" height="18" as="geometry" />
        </mxCell>
        <mxCell id="32SLlUpQdxrGUWhNNxCO-29" value="" style="whiteSpace=wrap;html=1;aspect=fixed;verticalAlign=top;labelPosition=center;verticalLabelPosition=bottom;align=center;" parent="1" vertex="1">
          <mxGeometry x="308" y="306" width="18" height="18" as="geometry" />
        </mxCell>
        <mxCell id="32SLlUpQdxrGUWhNNxCO-30" value="" style="whiteSpace=wrap;html=1;aspect=fixed;verticalAlign=top;labelPosition=center;verticalLabelPosition=bottom;align=center;" parent="1" vertex="1">
          <mxGeometry x="326" y="306" width="18" height="18" as="geometry" />
        </mxCell>
        <mxCell id="32SLlUpQdxrGUWhNNxCO-31" value="" style="whiteSpace=wrap;html=1;aspect=fixed;verticalAlign=top;labelPosition=center;verticalLabelPosition=bottom;align=center;" parent="1" vertex="1">
          <mxGeometry x="344" y="306" width="18" height="18" as="geometry" />
        </mxCell>
        <mxCell id="32SLlUpQdxrGUWhNNxCO-32" value="" style="whiteSpace=wrap;html=1;aspect=fixed;verticalAlign=top;labelPosition=center;verticalLabelPosition=bottom;align=center;" parent="1" vertex="1">
          <mxGeometry x="290" y="324" width="18" height="18" as="geometry" />
        </mxCell>
        <mxCell id="32SLlUpQdxrGUWhNNxCO-33" value="" style="whiteSpace=wrap;html=1;aspect=fixed;verticalAlign=top;labelPosition=center;verticalLabelPosition=bottom;align=center;" parent="1" vertex="1">
          <mxGeometry x="308" y="324" width="18" height="18" as="geometry" />
        </mxCell>
        <mxCell id="32SLlUpQdxrGUWhNNxCO-34" value="" style="whiteSpace=wrap;html=1;aspect=fixed;verticalAlign=top;labelPosition=center;verticalLabelPosition=bottom;align=center;" parent="1" vertex="1">
          <mxGeometry x="326" y="324" width="18" height="18" as="geometry" />
        </mxCell>
        <mxCell id="T2ZZee0PsSWV5pvHW-US-1" value="\(n=8\)" style="whiteSpace=wrap;html=1;aspect=fixed;verticalAlign=top;labelPosition=center;verticalLabelPosition=bottom;align=center;" vertex="1" parent="1">
          <mxGeometry x="436" y="270" width="72" height="72" as="geometry" />
        </mxCell>
        <mxCell id="T2ZZee0PsSWV5pvHW-US-2" value="" style="whiteSpace=wrap;html=1;aspect=fixed;verticalAlign=top;labelPosition=center;verticalLabelPosition=bottom;align=center;" vertex="1" parent="1">
          <mxGeometry x="436" y="270" width="18" height="18" as="geometry" />
        </mxCell>
        <mxCell id="T2ZZee0PsSWV5pvHW-US-3" value="" style="whiteSpace=wrap;html=1;aspect=fixed;verticalAlign=top;labelPosition=center;verticalLabelPosition=bottom;align=center;" vertex="1" parent="1">
          <mxGeometry x="454" y="270" width="18" height="18" as="geometry" />
        </mxCell>
        <mxCell id="T2ZZee0PsSWV5pvHW-US-4" value="" style="whiteSpace=wrap;html=1;aspect=fixed;verticalAlign=top;labelPosition=center;verticalLabelPosition=bottom;align=center;" vertex="1" parent="1">
          <mxGeometry x="472" y="270" width="18" height="18" as="geometry" />
        </mxCell>
        <mxCell id="T2ZZee0PsSWV5pvHW-US-5" value="" style="whiteSpace=wrap;html=1;aspect=fixed;verticalAlign=top;labelPosition=center;verticalLabelPosition=bottom;align=center;" vertex="1" parent="1">
          <mxGeometry x="490" y="270" width="18" height="18" as="geometry" />
        </mxCell>
        <mxCell id="T2ZZee0PsSWV5pvHW-US-9" value="" style="whiteSpace=wrap;html=1;aspect=fixed;verticalAlign=top;labelPosition=center;verticalLabelPosition=bottom;align=center;" vertex="1" parent="1">
          <mxGeometry x="490" y="288" width="18" height="18" as="geometry" />
        </mxCell>
        <mxCell id="T2ZZee0PsSWV5pvHW-US-13" value="" style="whiteSpace=wrap;html=1;aspect=fixed;verticalAlign=top;labelPosition=center;verticalLabelPosition=bottom;align=center;" vertex="1" parent="1">
          <mxGeometry x="490" y="306" width="18" height="18" as="geometry" />
        </mxCell>
        <mxCell id="T2ZZee0PsSWV5pvHW-US-14" value="" style="whiteSpace=wrap;html=1;aspect=fixed;verticalAlign=top;labelPosition=center;verticalLabelPosition=bottom;align=center;" vertex="1" parent="1">
          <mxGeometry x="436" y="288" width="54" height="54" as="geometry" />
        </mxCell>
        <mxCell id="T2ZZee0PsSWV5pvHW-US-15" value="" style="whiteSpace=wrap;html=1;aspect=fixed;verticalAlign=top;labelPosition=center;verticalLabelPosition=bottom;align=center;" vertex="1" parent="1">
          <mxGeometry x="490" y="324" width="18" height="18" as="geometry" />
        </mxCell>
        <mxCell id="T2ZZee0PsSWV5pvHW-US-17" value="" style="endArrow=classic;html=1;rounded=0;" edge="1" parent="1">
          <mxGeometry width="50" height="50" relative="1" as="geometry">
            <mxPoint x="374" y="310" as="sourcePoint" />
            <mxPoint x="424" y="310" as="targetPoint" />
          </mxGeometry>
        </mxCell>
      </root>
    </mxGraphModel>
  </diagram>
</mxfile>
